<svg width="9" height="9" viewBox="0 0 9 9" fill="none" xmlns="http://www.w3.org/2000/svg">
<g clip-path="url(#clip0_22_403)">
<path d="M4.5 0.75C4.00754 0.75 3.51991 0.846997 3.06494 1.03545C2.60997 1.22391 2.19657 1.50013 1.84835 1.84835C1.14509 2.55161 0.75 3.50544 0.75 4.5C0.75 6.1575 1.82625 7.56375 3.315 8.0625C3.5025 8.0925 3.5625 7.97625 3.5625 7.875V7.24125C2.52375 7.46625 2.3025 6.73875 2.3025 6.73875C2.13 6.30375 1.88625 6.1875 1.88625 6.1875C1.545 5.955 1.9125 5.9625 1.9125 5.9625C2.2875 5.98875 2.48625 6.34875 2.48625 6.34875C2.8125 6.91875 3.36375 6.75 3.5775 6.66C3.61125 6.41625 3.70875 6.25125 3.81375 6.1575C2.98125 6.06375 2.1075 5.74125 2.1075 4.3125C2.1075 3.89625 2.25 3.5625 2.49375 3.29625C2.45625 3.2025 2.325 2.8125 2.53125 2.30625C2.53125 2.30625 2.84625 2.205 3.5625 2.68875C3.85875 2.60625 4.18125 2.565 4.5 2.565C4.81875 2.565 5.14125 2.60625 5.4375 2.68875C6.15375 2.205 6.46875 2.30625 6.46875 2.30625C6.675 2.8125 6.54375 3.2025 6.50625 3.29625C6.75 3.5625 6.8925 3.89625 6.8925 4.3125C6.8925 5.745 6.015 6.06 5.17875 6.15375C5.31375 6.27 5.4375 6.49875 5.4375 6.8475V7.875C5.4375 7.97625 5.4975 8.09625 5.68875 8.0625C7.1775 7.56 8.25 6.1575 8.25 4.5C8.25 4.00754 8.153 3.51991 7.96455 3.06494C7.77609 2.60997 7.49987 2.19657 7.15165 1.84835C6.80343 1.50013 6.39003 1.22391 5.93506 1.03545C5.48009 0.846997 4.99246 0.75 4.5 0.75Z" fill="white"/>
</g>
<defs>
<clipPath id="clip0_22_403">
<rect width="9" height="9" fill="white"/>
</clipPath>
</defs>
</svg>
